<?xml version="1.0" standalone="no"?>
<!DOCTYPE svg PUBLIC "-//W3C//DTD SVG 20010904//EN"
 "http://www.w3.org/TR/2001/REC-SVG-20010904/DTD/svg10.dtd">
<svg version="1.0" xmlns="http://www.w3.org/2000/svg"
 width="1300.000000pt" height="1300.000000pt" viewBox="0 0 1300.000000 1300.000000"
 preserveAspectRatio="xMidYMid meet">
<metadata>
Created by potrace 1.11, written by Peter Selinger 2001-2013
</metadata>
<g transform="translate(0.000000,1300.000000) scale(0.100000,-0.100000)"
fill="#000000" stroke="none">
<path d="M5262 11953 c-79 -11 -225 -116 -262 -189 -8 -16 -25 -43 -36 -61
-42 -63 -39 -204 6 -300 23 -50 26 -120 5 -148 -22 -28 -9 -82 32 -133 42 -52
56 -92 37 -110 -16 -15 -19 -42 -4 -42 6 0 10 6 10 13 0 7 6 22 14 32 13 19
15 18 32 -18 18 -37 13 -60 -8 -39 -7 7 -16 12 -21 12 -11 0 1 -70 14 -86 5
-6 6 -26 3 -43 -4 -18 -2 -42 4 -54 6 -12 13 -55 15 -96 3 -47 9 -76 18 -82
10 -6 11 -9 2 -9 -16 0 -17 -75 -2 -119 11 -32 24 -40 32 -18 7 15 27 -10 27
-33 0 -11 -3 -11 -12 -2 -18 18 -30 14 -19 -7 6 -10 15 -43 20 -72 6 -30 17
-83 25 -119 17 -70 22 -184 7 -162 -8 13 -7 -13 3 -133 2 -22 13 -62 26 -90
21 -46 23 -48 36 -30 13 18 14 18 14 -6 0 -43 58 -144 111 -194 87 -82 197
-111 320 -85 62 13 154 66 196 111 33 36 70 118 81 176 10 57 -1 166 -17 171
-14 5 -14 69 -1 77 6 3 9 16 9 28 -1 20 -2 20 -6 3 -4 -17 -8 -14 -19 13 -19
46 -19 67 1 51 13 -11 13 -7 1 31 -8 24 -22 66 -30 93 -11 34 -16 88 -16 177
0 121 -1 129 -24 154 -14 15 -27 44 -31 71 -8 53 -4 61 18 39 9 -8 18 -15 21
-15 19 0 -17 165 -54 246 -11 24 -19 56 -19 71 l1 28 7 -30 7 -30 7 35 c5 21
4 36 -3 38 -13 5 -13 29 1 34 7 2 6 25 -4 73 -12 55 -16 62 -16 34 -1 -39 -22
-66 -42 -54 -13 9 -5 111 13 153 l11 27 7 -35 6 -35 8 47 c7 42 5 49 -17 74
l-26 27 6 -44 c6 -41 5 -43 -10 -27 -26 26 -37 63 -27 95 4 15 9 24 10 18 1
-5 5 -1 10 10 12 28 12 75 0 75 -6 0 -10 28 -10 63 0 34 -3 72 -6 85 -4 13
-46 52 -99 92 -92 69 -154 128 -85 80 29 -20 32 -20 18 -4 -10 11 -50 37 -90
57 -75 37 -158 51 -236 40z m508 -459 c0 -8 -7 -14 -15 -14 -15 0 -21 21 -9
33 10 9 24 -2 24 -19z m-710 -154 c-16 -31 -23 -19 -9 16 6 16 13 24 16 17 2
-7 -1 -22 -7 -33z"/>
<path d="M7587 11756 c-147 -43 -245 -167 -254 -326 -3 -41 -10 -91 -17 -110
-8 -19 -17 -57 -22 -85 l-8 -50 -6 35 -6 35 -9 -50 c-4 -27 -21 -80 -37 -117
-15 -37 -28 -74 -28 -82 0 -9 -3 -16 -7 -16 -16 0 -71 -175 -59 -187 2 -3 -3
-25 -11 -50 -12 -33 -18 -41 -25 -32 -6 10 -7 6 -3 -10 4 -13 2 -26 -4 -30 -6
-4 -15 -38 -21 -76 -18 -130 -28 -146 -44 -72 -7 30 -21 35 -30 11 -3 -9 -9
-55 -12 -102 -3 -48 -13 -113 -20 -145 -11 -43 -12 -67 -4 -95 14 -51 13 -85
-5 -108 -13 -18 -14 -17 -21 14 -8 38 -24 43 -24 6 0 -14 -7 -32 -15 -41 -11
-11 -15 -33 -14 -72 0 -31 -2 -90 -6 -131 -13 -137 29 -267 110 -345 128 -123
308 -147 474 -64 95 47 170 149 188 253 4 24 12 40 22 43 10 2 23 14 30 25 16
26 28 191 12 168 -9 -13 -11 -13 -11 2 0 9 5 20 10 23 6 3 10 16 10 28 1 32
45 159 52 151 4 -3 16 27 28 67 18 61 20 79 11 105 -6 17 -11 46 -11 65 0 27
-3 31 -11 19 -8 -11 -9 -9 -3 10 3 14 10 32 15 40 7 13 8 12 9 -3 0 -16 2 -16
29 -3 35 19 40 31 51 130 5 43 15 85 21 92 7 8 13 27 15 42 2 15 5 46 8 69 5
50 66 143 66 102 1 -36 16 -4 25 51 3 25 18 79 31 119 23 70 24 82 15 170 -5
53 -9 134 -8 181 0 75 -3 93 -31 153 -36 79 -90 135 -167 173 -67 32 -200 42
-278 20z m-187 -313 c0 -5 -9 -19 -20 -33 -21 -26 -27 -12 -10 21 10 19 30 26
30 12z m-50 -169 c0 -8 -4 -14 -10 -14 -5 0 -10 9 -10 21 0 11 5 17 10 14 6
-3 10 -13 10 -21z m-316 -979 c-8 -88 -12 -95 -35 -66 -23 28 -24 60 -4 87 8
10 15 31 15 46 0 14 3 35 7 45 12 30 23 -43 17 -112z m756 33 c0 -13 -4 -29
-9 -37 -13 -20 -24 4 -17 35 8 30 26 32 26 2z m-13 -150 c-3 -8 -6 -5 -6 6 -1
11 2 17 5 13 3 -3 4 -12 1 -19z m-98 -284 c-12 -28 -13 -28 -17 -6 -2 13 2 30
9 39 18 21 22 2 8 -33z"/>
<path d="M3144 10831 c-88 -23 -165 -81 -225 -171 -40 -60 -54 -112 -54 -205
0 -106 32 -172 129 -272 39 -40 89 -94 111 -120 35 -41 36 -45 13 -30 -39 24
-35 7 8 -34 20 -18 49 -59 65 -89 88 -162 108 -195 155 -243 28 -28 59 -74 70
-100 10 -27 37 -66 60 -87 78 -72 98 -115 37 -82 -25 14 -43 16 -43 5 0 -9 61
-74 116 -124 21 -19 55 -55 74 -79 19 -24 51 -50 70 -57 36 -15 90 -60 90 -75
0 -12 -38 -10 -45 2 -3 6 -13 10 -22 10 -11 0 -7 -7 11 -21 15 -12 25 -28 22
-35 -5 -13 50 -74 66 -74 4 0 36 -28 70 -63 40 -40 89 -75 133 -97 67 -33 75
-35 175 -35 95 0 110 3 159 28 112 58 170 122 211 234 42 117 17 268 -60 365
-20 25 -30 48 -30 72 0 28 -8 41 -47 76 -27 23 -56 46 -65 51 -16 9 -17 7 -7
-18 6 -15 18 -36 27 -47 16 -17 16 -18 -3 -15 -14 3 -25 20 -38 62 -11 32 -27
61 -38 67 -10 6 -19 17 -19 24 0 7 -18 36 -40 64 -22 28 -36 52 -31 54 12 4
-42 87 -72 110 -12 10 -29 18 -38 18 -8 0 -26 11 -39 25 -16 17 -26 21 -31 14
-4 -8 -11 -4 -19 11 -7 12 -8 20 -2 16 12 -7 22 16 22 51 0 18 -21 47 -72 99
-39 41 -69 76 -66 79 3 3 -19 30 -47 61 -34 36 -57 70 -63 95 -9 34 -8 40 4
35 25 -10 15 12 -24 51 -20 21 -57 68 -81 105 -38 58 -55 73 -133 119 -49 29
-98 66 -109 81 -11 15 -48 41 -83 58 -51 26 -80 32 -142 35 -44 3 -93 1 -110
-4z m-105 -631 c0 -11 -3 -10 -14 4 -8 11 -15 31 -14 45 1 26 1 26 14 -4 8
-16 14 -37 14 -45z m80 -89 c8 -5 9 -11 3 -15 -5 -3 -15 1 -22 9 -14 16 -3 20
19 6z m1024 -242 c10 -11 16 -23 13 -27 -7 -6 -46 27 -46 40 0 14 15 9 33 -13z
m-445 -607 c52 -44 66 -72 37 -72 -22 0 -75 29 -75 40 0 21 -3 26 -36 63 -19
20 -34 40 -34 43 0 10 49 -24 108 -74z"/>
<path d="M9710 10711 c-94 -29 -171 -92 -227 -186 -47 -78 -82 -114 -111 -115
-37 0 -77 -51 -91 -117 -8 -32 -20 -67 -27 -77 -8 -13 -10 -24 -4 -31 6 -7 1
-23 -13 -46 -20 -31 -22 -32 -25 -11 -2 12 -7 22 -11 22 -12 0 -62 -56 -55
-62 3 -4 -10 -17 -30 -30 -20 -13 -39 -32 -42 -43 -3 -11 -19 -29 -35 -40 -16
-11 -38 -34 -49 -50 -10 -17 -36 -44 -58 -60 -37 -27 -82 -82 -82 -98 0 -4 9
-7 20 -7 23 0 26 -10 8 -28 -17 -17 -28 -15 -21 4 4 12 2 15 -8 12 -7 -2 -16
-13 -19 -24 -8 -29 -61 -84 -81 -84 -9 0 -20 -7 -23 -16 -9 -24 -7 -31 4 -14
8 13 10 13 10 -1 0 -26 -115 -143 -134 -136 -9 4 -16 1 -17 -6 0 -7 -22 -29
-48 -49 -65 -49 -142 -182 -96 -164 20 7 19 -3 -4 -28 -59 -66 -83 -236 -46
-331 20 -53 93 -153 111 -154 5 -1 20 -10 32 -22 59 -54 199 -77 301 -49 71
19 199 122 205 165 2 17 32 37 70 49 14 5 16 9 7 19 -14 18 16 64 32 48 12
-12 37 20 63 79 19 45 35 62 119 128 89 70 128 109 122 125 -6 16 21 68 47 90
21 18 21 18 24 -2 7 -43 33 -20 110 97 34 51 62 97 62 102 0 5 6 11 13 13 8 4
8 6 -2 6 -19 1 18 30 38 31 11 0 9 -4 -5 -15 -18 -14 -17 -14 9 -3 16 7 26 17
23 25 -5 12 4 16 29 15 6 -1 27 21 48 49 21 27 34 49 29 49 -5 0 -15 -7 -22
-15 -14 -17 -46 -20 -55 -5 -8 12 30 45 89 78 47 26 83 31 52 7 -11 -8 -15
-15 -9 -15 17 0 56 35 59 52 1 9 5 26 9 39 6 20 2 19 -23 -11 -36 -42 -49 -36
-28 13 8 19 13 37 11 39 -2 2 4 4 13 5 72 7 112 26 112 52 0 10 22 35 49 57
27 21 53 48 58 59 13 32 8 335 -7 380 -29 91 -106 171 -207 217 -55 25 -74 28
-155 27 -51 0 -104 -4 -118 -8z m-206 -306 c-22 -16 -44 -19 -44 -6 0 9 21 18
49 20 10 1 9 -4 -5 -14z m616 -329 c0 -2 -8 -10 -17 -17 -16 -13 -17 -12 -4 4
13 16 21 21 21 13z m-53 -111 c-4 -8 -14 -15 -23 -15 -16 0 -16 2 1 20 20 22
31 20 22 -5z"/>
<path d="M5870 10670 c0 -11 5 -20 10 -20 6 0 15 -10 20 -22 8 -22 9 -22 9 4
1 14 -2 33 -5 42 -9 23 -34 20 -34 -4z"/>
<path d="M10212 10340 c0 -19 2 -27 5 -17 2 9 2 25 0 35 -3 9 -5 1 -5 -18z"/>
<path d="M5160 10275 c0 -11 5 -27 10 -35 8 -12 10 -12 10 5 0 11 -5 27 -10
35 -8 12 -10 12 -10 -5z"/>
<path d="M9190 10190 c-8 -5 -12 -11 -9 -14 7 -8 49 5 49 15 0 12 -21 11 -40
-1z"/>
<path d="M9493 9348 c-11 -14 -15 -58 -6 -58 11 0 32 35 33 53 0 20 -13 22
-27 5z"/>
<path d="M1622 9310 c-90 -23 -166 -34 -137 -21 11 5 14 10 7 10 -7 1 -42 -13
-78 -31 -119 -58 -198 -174 -211 -310 -6 -65 13 -182 32 -198 8 -6 17 -24 20
-40 7 -32 129 -155 145 -145 5 3 20 0 32 -7 13 -7 25 -13 28 -13 15 -2 81 -39
91 -51 6 -8 18 -14 25 -14 8 0 14 -7 14 -15 0 -8 5 -25 11 -39 12 -27 74 -46
145 -46 19 0 44 -5 55 -11 15 -7 24 -7 34 1 10 8 23 7 52 -6 37 -15 37 -16 16
-27 -13 -5 -23 -13 -23 -16 0 -11 59 -43 68 -37 5 3 22 -8 37 -24 16 -17 34
-30 41 -30 7 0 30 -15 52 -33 22 -19 55 -40 73 -48 19 -7 44 -25 55 -39 26
-30 101 -69 144 -75 35 -4 123 -59 112 -69 -3 -4 0 -11 8 -16 23 -15 34 -12
20 5 -18 22 -3 18 49 -12 59 -34 121 -82 121 -94 0 -32 157 -129 209 -129 18
0 22 4 18 20 -5 20 -5 20 22 1 71 -51 230 -54 323 -7 71 37 133 99 166 166 24
50 27 66 27 165 0 89 -4 117 -19 145 -41 77 -157 180 -201 180 -22 0 -70 42
-60 52 3 3 -2 11 -12 19 -11 9 -14 10 -9 2 9 -15 -4 -16 -38 -3 -16 6 -24 15
-20 24 4 10 -9 19 -43 31 -99 36 -140 61 -216 132 -43 40 -81 73 -85 74 -4 1
-25 2 -48 3 -24 1 -54 12 -74 26 l-33 24 26 9 c15 5 24 13 21 18 -9 15 -212
108 -247 115 -37 6 -57 21 -57 42 0 13 3 12 15 -4 14 -18 15 -17 4 8 -8 19
-18 27 -33 25 -14 -1 -20 3 -19 13 2 9 -21 28 -60 49 l-62 34 29 -31 c18 -20
26 -37 22 -47 -10 -28 -38 -12 -89 50 -36 45 -44 61 -32 63 38 8 5 38 -47 44
-46 5 -48 -1 -5 -27 l32 -19 -29 -4 c-37 -5 -82 28 -79 57 2 18 -1 20 -21 15
-18 -4 -27 -1 -35 14 -12 22 0 25 29 7 9 -5 7 1 -4 14 -11 12 -26 19 -35 16
-8 -3 -17 -2 -20 2 -3 5 -26 25 -50 46 -52 43 -82 46 -199 17z m-32 -741 c6
-10 7 -19 2 -19 -5 0 -14 12 -20 26 -14 29 2 24 18 -7z m770 -493 c0 -2 -9 -6
-20 -9 -15 -4 -20 0 -20 14 0 17 3 18 20 9 11 -6 20 -12 20 -14z"/>
<path d="M1518 9303 c6 -2 18 -2 25 0 6 3 1 5 -13 5 -14 0 -19 -2 -12 -5z"/>
<path d="M6820 9140 c-36 -11 -83 -20 -105 -20 -22 0 -62 -7 -89 -15 -27 -8
-56 -15 -65 -14 -9 0 2 6 24 13 l40 13 -27 11 c-31 13 -67 9 -195 -21 -94 -21
-105 -36 -28 -38 l40 -1 -38 -10 c-41 -11 -139 -1 -118 12 8 4 -9 9 -40 12
-41 4 -56 2 -65 -9 -8 -11 -32 -16 -90 -17 -43 0 -81 -4 -84 -8 -3 -4 -77 -10
-165 -14 -176 -7 -198 -13 -277 -75 -35 -28 -61 -39 -100 -44 -29 -4 -77 -20
-105 -36 -59 -33 -79 -35 -109 -14 -19 13 -24 11 -55 -15 -19 -16 -42 -29 -53
-30 -10 0 -35 -9 -55 -19 -20 -11 -72 -37 -116 -57 -79 -38 -80 -38 -46 -44
19 -3 36 -10 38 -17 5 -15 -86 -43 -140 -43 -30 0 -38 -3 -34 -14 4 -10 -11
-21 -49 -38 -40 -17 -54 -28 -54 -44 0 -16 -11 -23 -52 -33 -57 -15 -92 -30
-85 -37 2 -3 17 0 33 5 24 9 26 8 10 -2 -10 -6 -34 -22 -53 -34 -18 -13 -38
-23 -43 -23 -5 0 -11 -9 -15 -19 -4 -13 -12 -17 -25 -14 -30 8 -110 -75 -110
-114 0 -35 -59 -121 -70 -102 -11 17 -39 4 -49 -23 -10 -26 -104 -118 -120
-118 -6 0 -22 -18 -36 -39 -30 -48 -104 -121 -122 -121 -8 0 -17 -8 -20 -17
-4 -10 -24 -47 -46 -82 -26 -43 -33 -62 -22 -57 11 4 15 2 13 -6 -3 -7 -11
-13 -19 -13 -8 0 -35 -38 -60 -85 -25 -47 -58 -105 -75 -129 -52 -79 -59 -95
-61 -156 -3 -103 -11 -160 -22 -158 -15 4 -33 -35 -71 -152 -18 -55 -41 -116
-51 -135 -21 -44 -43 -187 -36 -241 4 -29 2 -39 -9 -39 -16 0 -19 -26 -4 -35
5 -3 10 -23 10 -43 4 -158 2 -229 -5 -309 l-8 -91 31 -16 c18 -9 35 -16 39
-16 5 0 11 -32 15 -72 10 -102 12 -107 62 -173 29 -38 46 -71 46 -90 1 -24 3
-26 9 -11 10 27 16 15 46 -102 14 -56 36 -137 50 -180 13 -42 27 -94 31 -116
9 -51 56 -104 101 -112 25 -5 43 -18 65 -48 16 -22 33 -48 36 -56 3 -8 34 -50
69 -93 35 -44 63 -84 63 -91 0 -7 14 -25 31 -42 30 -28 31 -28 19 -4 -23 46 5
9 36 -47 56 -102 154 -203 197 -203 14 0 18 5 14 19 -8 30 14 16 52 -35 32
-42 33 -45 16 -58 -17 -12 -15 -14 15 -24 18 -7 36 -9 41 -6 5 3 9 2 8 -3 -3
-12 29 -81 41 -88 14 -9 12 38 -2 55 -7 8 6 -1 29 -20 24 -19 58 -48 78 -64
19 -15 42 -26 49 -23 8 3 20 0 26 -8 6 -7 32 -21 57 -29 67 -23 171 -84 219
-128 46 -43 86 -58 152 -58 30 0 66 -12 122 -40 44 -22 89 -40 100 -40 12 0
50 -18 86 -39 36 -22 79 -43 96 -46 17 -4 32 -15 35 -25 9 -34 106 -43 123
-11 8 17 15 18 42 10 18 -5 40 -18 50 -29 9 -11 21 -20 26 -20 5 0 17 -10 25
-23 14 -18 18 -20 26 -7 17 25 144 -3 208 -45 61 -40 108 -53 221 -58 74 -3
82 -2 82 15 0 10 -7 18 -17 18 -15 0 -16 2 -3 15 13 13 22 13 70 0 30 -8 82
-20 115 -26 33 -6 104 -24 158 -41 57 -17 108 -27 121 -24 13 3 40 -1 60 -9
37 -16 30 -16 243 15 90 13 158 13 203 0 45 -12 139 2 155 24 10 14 27 15 116
10 107 -6 170 6 209 40 8 7 38 16 65 20 34 4 43 3 30 -3 -11 -5 -14 -10 -6
-10 35 -2 297 77 287 86 -3 3 -19 0 -36 -6 l-31 -10 36 38 c30 31 46 39 85 44
58 7 105 30 186 91 60 45 161 152 152 162 -3 2 -17 -5 -31 -17 -41 -31 -32 -8
13 36 29 28 38 44 34 59 -7 28 51 83 91 88 25 2 35 12 58 58 23 45 32 54 54
55 54 0 99 114 49 124 -11 2 -24 -3 -30 -11 -15 -19 -67 -58 -77 -58 -5 0 -9
8 -9 18 0 15 78 72 99 72 16 0 99 100 122 146 12 26 23 64 25 85 2 29 12 48
42 78 22 22 56 70 76 106 30 55 36 76 37 132 1 59 5 71 35 110 34 45 44 88 22
95 -8 3 -7 11 4 27 13 18 14 28 6 41 -9 14 -3 31 35 91 l47 73 0 91 c0 79 3
94 21 114 43 46 45 149 4 165 -21 8 -19 33 5 63 23 29 26 64 8 92 -9 15 -8 22
5 36 22 21 21 24 -5 52 -17 18 -19 26 -9 36 9 9 14 9 21 -2 5 -9 6 37 4 110
-8 229 -10 239 -48 317 -20 40 -36 86 -36 102 0 16 -14 71 -31 122 -19 56 -34
125 -38 174 -6 75 -9 85 -44 127 -27 33 -48 48 -72 53 -19 3 -35 11 -35 18 0
32 -55 175 -79 206 -15 19 -42 66 -60 105 -34 75 -73 132 -135 198 -21 23 -57
80 -81 127 -44 87 -164 228 -183 216 -6 -3 -13 14 -16 39 -15 98 -111 243
-201 304 -40 27 -128 71 -142 71 -5 0 -20 7 -35 14 -42 22 -38 14 40 -67 l27
-29 -25 7 c-29 8 -50 26 -145 119 -38 38 -83 74 -100 81 -16 7 -62 24 -100 39
-71 26 -130 69 -119 87 3 5 34 -6 72 -26 36 -19 67 -33 69 -31 5 4 -65 46 -76
46 -5 0 -14 7 -22 16 -7 8 -20 13 -30 11 -9 -3 -54 21 -104 55 -75 51 -217
119 -366 174 -43 15 -252 54 -324 60 -31 2 -74 -4 -115 -16z m-220 -1050 c-20
-13 -60 -13 -60 0 0 6 17 10 38 10 27 0 33 -3 22 -10z m-541 -23 c15 -19 4
-27 -41 -27 -44 0 -50 14 -10 28 37 14 38 14 51 -1z m-1029 -87 c-6 -12 -14
-20 -17 -17 -2 3 1 14 8 26 17 26 24 19 9 -9z m1539 -196 c-29 -36 -132 -104
-156 -104 -23 0 -21 4 23 38 57 45 136 93 143 87 2 -3 -2 -12 -10 -21z m737
-89 c6 -8 47 -28 90 -44 69 -25 79 -32 86 -59 6 -23 16 -32 37 -37 16 -3 39
-17 51 -31 25 -26 55 -32 63 -11 3 7 21 -4 50 -32 27 -26 43 -49 40 -58 -7
-19 30 -58 94 -99 55 -36 69 -41 57 -22 -4 7 -3 8 5 4 6 -4 9 -11 6 -16 -3 -5
3 -11 12 -15 10 -3 44 -38 76 -78 50 -63 56 -75 51 -104 -4 -20 -2 -33 4 -33
6 0 23 -33 38 -72 31 -83 64 -140 92 -160 16 -11 19 -25 18 -79 -1 -68 16
-119 41 -119 7 0 14 -10 15 -22 1 -13 2 -39 4 -58 5 -76 21 -159 33 -174 10
-11 10 -20 0 -37 -9 -17 -9 -34 2 -76 12 -54 12 -55 -14 -76 l-27 -22 20 -40
c18 -38 19 -43 5 -104 -14 -57 -14 -66 0 -81 14 -15 14 -20 1 -45 -8 -16 -20
-50 -26 -76 -9 -35 -22 -58 -48 -80 -21 -18 -36 -42 -38 -58 -2 -14 -7 -88
-12 -164 -6 -76 -12 -141 -15 -143 -3 -3 -14 6 -24 20 l-20 25 -23 -24 c-12
-13 -37 -60 -55 -104 -17 -44 -35 -78 -38 -75 -3 3 -8 0 -13 -7 -4 -8 -3 -10
4 -5 19 12 14 -12 -7 -31 -10 -10 -28 -37 -40 -60 -26 -51 -35 -55 -27 -10 l7
32 -21 -38 c-11 -21 -20 -43 -19 -50 1 -6 1 -24 0 -39 -1 -33 -21 -38 -21 -5
-1 21 -1 21 -12 2 -7 -11 -21 -27 -32 -36 -12 -10 -29 -31 -39 -48 l-18 -31
25 0 c14 0 26 -4 26 -9 0 -5 8 -11 18 -13 9 -2 -14 -12 -53 -21 -38 -10 -77
-22 -86 -27 -9 -4 -38 -11 -65 -14 l-49 -6 65 24 65 24 -67 1 c-63 1 -68 -1
-68 -20 0 -29 -27 -48 -70 -49 -27 -1 -30 -3 -16 -9 18 -7 18 -8 2 -14 -32
-12 -154 -8 -159 6 -3 9 -7 9 -20 -1 -13 -11 -27 -12 -67 -3 -73 16 -162 14
-186 -4 -25 -19 -64 -19 -92 1 -14 10 -39 15 -65 13 -41 -3 -95 5 -293 42 -60
11 -147 19 -210 19 -71 0 -104 4 -94 10 19 12 17 13 -55 40 -33 12 -88 23
-122 24 -61 2 -92 14 -64 24 11 4 11 6 0 14 -9 6 -2 7 24 3 56 -9 45 2 -20 20
-116 32 -278 87 -283 95 -11 18 -113 50 -161 50 -28 0 -48 4 -45 8 3 5 -21 14
-52 20 -68 15 -134 62 -87 62 22 0 18 13 -10 40 -20 19 -24 30 -20 51 4 16 2
37 -4 47 -20 38 -116 55 -145 27 -26 -26 -44 -17 -126 61 -59 57 -77 80 -70
89 8 9 4 17 -14 29 -14 9 -32 16 -41 16 -9 0 -14 4 -11 9 3 5 -8 23 -24 41
-17 18 -30 35 -30 38 0 9 -43 52 -52 52 -5 0 4 -16 19 -37 17 -22 22 -34 13
-32 -16 5 -34 39 -94 172 -44 96 -74 140 -92 133 -17 -6 -23 3 -39 62 -27 94
-62 186 -74 190 -17 6 -14 62 4 62 21 0 20 1 -29 72 -60 87 -76 121 -76 163 0
45 28 49 36 5 9 -41 20 -30 33 31 11 51 4 129 -20 203 -11 37 -5 44 21 21 19
-17 20 -17 29 7 5 13 12 50 16 81 5 35 16 68 31 88 27 37 30 63 11 99 -12 22
-11 29 6 53 31 46 90 105 82 82 -4 -11 -11 -43 -15 -71 -5 -29 -11 -62 -15
-73 -4 -14 0 -31 9 -46 14 -21 14 -25 2 -25 -20 0 -27 -26 -15 -53 6 -12 18
-72 28 -132 15 -96 20 -110 37 -110 15 0 19 -7 17 -30 -9 -111 -6 -172 10
-205 14 -30 15 -31 11 -7 -4 15 -3 27 0 27 15 0 162 -337 152 -348 -12 -12
-52 39 -63 81 -7 24 -22 54 -33 68 l-21 24 4 -42 c3 -23 18 -68 34 -100 23
-45 34 -58 50 -56 18 2 23 -7 37 -62 19 -74 20 -105 6 -105 -22 0 29 -73 118
-168 51 -55 106 -120 121 -144 16 -25 42 -54 57 -65 35 -25 158 -86 205 -102
l34 -11 -35 30 c-58 49 -10 35 61 -17 102 -76 114 -82 205 -104 48 -11 96 -27
108 -34 18 -12 158 -57 221 -72 15 -3 23 3 32 26 14 38 29 39 77 6 20 -14 45
-25 55 -25 10 0 36 -6 57 -13 51 -17 119 -13 140 7 16 17 22 16 97 -6 28 -9
40 -9 49 0 16 16 28 15 28 -3 0 -8 5 -15 11 -15 7 0 10 12 7 30 -3 16 -4 30
-4 30 2 0 131 -28 184 -40 60 -13 145 -3 244 31 32 10 73 19 93 19 36 0 43 8
24 27 -6 6 -8 16 -5 22 11 17 69 29 87 18 12 -8 55 2 163 38 130 43 175 65
131 65 -8 0 -15 3 -14 8 0 7 183 155 198 160 5 2 11 -5 13 -14 2 -14 19 -4 77
46 41 35 69 66 63 68 -13 4 -66 -22 -108 -54 -40 -31 -44 -30 -44 4 0 18 20
60 55 111 30 45 62 95 70 109 10 20 14 22 15 10 0 -29 28 -21 45 13 18 34 13
48 -10 29 -23 -19 -20 12 5 41 l19 24 1 -23 c0 -27 14 -25 93 15 101 50 107
87 20 118 -94 34 -88 22 -91 151 -3 83 -8 127 -21 158 -25 58 -48 166 -57 264
-4 46 -10 78 -14 72 -8 -13 -30 70 -30 113 -1 21 -1 21 -15 -3 -14 -24 -14
-22 -15 37 0 59 -2 64 -56 137 -31 41 -60 73 -64 71 -15 -9 -117 113 -124 147
-3 19 -19 46 -34 60 -27 26 -118 65 -128 56 -2 -3 18 -20 45 -37 65 -42 78
-58 62 -74 -10 -9 -24 1 -66 47 -30 33 -52 63 -49 68 3 5 -2 12 -12 15 -11 3
-35 23 -54 46 l-35 40 45 -8 45 -7 -34 26 c-41 31 -36 30 -55 11 -14 -14 -18
-14 -38 -1 -51 32 -162 68 -279 89 -103 18 -160 22 -334 22 -157 0 -218 -3
-240 -14 -97 -44 -124 -61 -172 -105 -63 -57 -119 -148 -163 -266 -17 -47 -39
-103 -47 -125 -9 -22 -18 -80 -20 -130 -4 -80 -2 -99 22 -165 58 -160 191
-268 377 -306 107 -22 251 -7 328 33 34 17 40 16 40 -6 0 -25 16 -36 24 -16 5
13 9 13 39 -1 18 -9 37 -24 43 -34 5 -9 22 -36 37 -59 16 -24 27 -50 25 -58
-2 -10 -26 14 -66 65 -35 45 -65 82 -67 82 -8 0 24 -65 33 -68 6 -2 8 -10 5
-18 -3 -8 2 -23 11 -33 9 -9 19 -39 22 -65 7 -46 6 -48 -14 -41 -13 4 -22 2
-22 -4 0 -14 -68 -14 -107 -1 -22 8 -36 7 -57 -4 -19 -10 -23 -15 -13 -18 10
-2 -8 -19 -46 -45 -75 -51 -97 -60 -97 -41 0 21 27 43 80 67 36 16 40 20 21
20 -14 1 -32 8 -42 17 -17 15 -19 15 -34 0 -21 -20 -104 -21 -131 -1 -25 19
-54 19 -81 0 -22 -16 -26 -16 -138 -15 -60 0 -76 4 -108 28 -51 36 -46 56 8
37 11 -3 -8 10 -41 29 l-61 36 -18 73 c-9 39 -32 110 -50 157 -43 112 -59 174
-52 202 5 17 0 27 -16 38 -12 8 -25 13 -29 12 -15 -4 -8 46 8 59 10 8 15 27
14 58 -4 109 0 131 24 155 12 13 26 32 30 43 4 10 -4 5 -18 -12 l-25 -30 -1
40 c0 22 6 49 13 60 8 11 22 34 33 50 l18 30 -24 -20 c-32 -27 -21 -9 62 102
37 50 68 97 68 105 0 20 53 48 77 42 15 -4 30 4 54 30 21 24 35 32 40 25 4 -8
21 -3 53 16 37 22 46 24 46 11 0 -22 8 -20 47 14 18 17 43 30 53 30 29 0 24
-9 -12 -25 -29 -12 -30 -14 -10 -15 13 0 47 11 75 24 38 17 86 27 177 35 68 7
129 16 135 19 32 22 128 29 335 26 191 -2 226 -5 236 -19z m255 -105 c25 -14
24 -30 -1 -30 -11 0 -20 2 -20 4 0 2 -3 11 -6 20 -7 19 0 20 27 6z m-1592 -77
c-88 -93 -115 -133 -98 -144 12 -8 12 -10 -1 -19 -19 -12 -79 -24 -87 -17 -8
8 99 117 109 111 4 -3 8 1 8 8 1 21 96 116 119 118 2 0 -20 -26 -50 -57z
m1651 47 c0 -5 -2 -10 -4 -10 -3 0 -8 5 -11 10 -3 6 -1 10 4 10 6 0 11 -4 11
-10z m355 -297 c18 -14 18 -15 2 -9 -10 3 -23 6 -28 6 -5 0 -9 5 -9 10 0 14
12 12 35 -7z m-2153 -45 c3 -7 -3 -32 -12 -55 -14 -39 -17 -41 -28 -23 -16 26
-15 37 6 65 19 28 28 31 34 13z m3438 -349 c0 -6 -4 -7 -10 -4 -5 3 -10 11
-10 16 0 6 5 7 10 4 6 -3 10 -11 10 -16z m-1040 -89 c0 -5 -4 -10 -10 -10 -5
0 -10 5 -10 10 0 6 5 10 10 10 6 0 10 -4 10 -10z m1078 -105 c0 -38 -1 -39 -8
-10 -4 17 -8 46 -8 65 0 32 1 33 8 10 4 -14 8 -43 8 -65z m-3380 -291 c-4 -3
-12 5 -18 18 -12 22 -12 22 6 6 10 -10 15 -20 12 -24z m1047 -115 c-33 -13
-36 -10 -26 29 1 1 11 -3 23 -9 22 -12 22 -12 3 -20z m-791 -55 c9 -3 16 -11
16 -16 0 -12 -70 -1 -84 13 -11 10 43 13 68 3z m634 -66 c-2 -6 -15 -18 -28
-27 l-24 -16 18 28 c18 27 41 38 34 15z m-1898 -543 c11 -13 10 -14 -4 -9 -9
3 -16 10 -16 15 0 13 6 11 20 -6z m-270 -1120 c20 -24 6 -28 -15 -5 -10 11
-13 20 -8 20 6 0 16 -7 23 -15z"/>
<path d="M6570 7620 c0 -5 12 -10 28 -10 21 0 24 2 12 10 -20 13 -40 13 -40 0z"/>
<path d="M6685 7620 l-40 -7 35 -1 c19 0 44 3 55 8 24 10 7 10 -50 0z"/>
<path d="M6788 7613 c7 -3 16 -2 19 1 4 3 -2 6 -13 5 -11 0 -14 -3 -6 -6z"/>
<path d="M7601 7168 c29 -43 54 -76 56 -74 6 6 -40 75 -77 116 -20 23 -13 8
21 -42z"/>
<path d="M4734 6555 c9 -104 22 -117 18 -17 -2 42 -8 82 -14 87 -7 7 -8 -14
-4 -70z"/>
<path d="M4520 6431 c0 -6 4 -13 10 -16 6 -3 7 1 4 9 -7 18 -14 21 -14 7z"/>
<path d="M8080 5459 c0 -11 5 -17 10 -14 6 3 10 13 10 21 0 8 -4 14 -10 14 -5
0 -10 -9 -10 -21z"/>
<path d="M7697 4874 c-12 -12 3 -22 23 -17 11 3 17 9 14 14 -6 10 -28 12 -37
3z"/>
<path d="M2610 8776 c0 -16 25 -24 53 -18 17 4 17 5 0 18 -24 18 -53 18 -53 0z"/>
<path d="M11255 8703 c-66 -9 -130 -37 -190 -84 -36 -27 -71 -49 -79 -49 -9 0
-37 -13 -63 -30 -54 -34 -76 -40 -42 -10 18 16 9 14 -36 -9 -33 -16 -80 -35
-105 -42 -25 -7 -49 -16 -55 -19 -5 -4 -28 -11 -49 -15 -42 -7 -122 -44 -166
-76 -14 -11 -55 -28 -92 -38 -66 -19 -128 -49 -128 -62 0 -8 -81 -42 -86 -36
-2 2 7 17 21 33 52 60 26 59 -66 -3 -39 -27 -96 -64 -128 -83 -32 -19 -81 -59
-108 -87 -60 -65 -109 -75 -67 -14 16 23 16 23 -6 11 -13 -7 -35 -13 -49 -14
-14 -1 -41 -16 -59 -34 -18 -17 -56 -47 -85 -66 -126 -83 -195 -186 -210 -315
-18 -149 80 -318 228 -394 55 -29 68 -31 160 -32 88 0 107 4 159 28 44 20 68
26 93 21 36 -7 56 3 112 55 37 35 35 51 -4 33 -31 -14 -45 -15 -45 -3 0 12 56
31 91 31 15 0 40 7 56 15 15 8 51 24 78 36 28 12 58 26 69 31 13 7 16 7 12 -1
-10 -16 -3 -14 56 13 53 23 97 61 85 72 -3 3 -16 -1 -29 -10 -27 -19 -38 -20
-38 -3 0 18 57 50 65 37 4 -7 17 -4 36 7 25 15 27 19 12 24 -13 4 -10 8 15 17
19 6 32 7 32 1 0 -5 -6 -9 -12 -9 -7 -1 3 -8 22 -16 40 -18 63 -10 158 53 29
19 59 36 65 37 24 5 73 30 93 49 27 23 135 40 127 20 -8 -20 10 -16 51 12 20
14 72 39 114 56 71 28 84 37 147 110 38 43 78 82 89 85 39 11 94 76 127 148
29 62 33 81 33 151 -1 125 -54 225 -163 303 -64 46 -175 75 -246 65z m-115
-112 c0 -9 -71 -23 -79 -15 -9 9 23 24 52 24 15 0 27 -4 27 -9z m-166 -66 c-7
-16 -24 -21 -24 -6 0 8 7 13 27 20 1 1 0 -6 -3 -14z m-874 -340 c-40 -42 -126
-105 -143 -105 -20 0 -20 -1 -6 38 7 22 15 29 26 25 11 -4 14 -2 9 5 -4 7 7
15 31 22 21 6 49 17 63 25 38 22 46 18 20 -10z"/>
<path d="M1830 8341 c5 -11 15 -23 20 -26 14 -9 12 19 -2 33 -19 19 -30 14
-18 -7z"/>
<path d="M3942 7939 c-12 -23 -22 -46 -22 -52 1 -7 12 10 26 36 14 27 24 51
21 53 -2 2 -13 -15 -25 -37z"/>
<path d="M9064 7416 c-3 -8 4 -31 16 -53 l21 -38 -5 34 c-4 18 -6 42 -6 52 0
22 -18 25 -26 5z"/>
<path d="M2537 6958 c-64 -22 -66 -38 -4 -38 36 -1 39 -2 23 -12 -14 -8 -28
-8 -50 0 -17 6 -115 12 -218 14 -183 3 -187 3 -208 -19 -11 -13 -32 -23 -45
-23 -29 0 -42 -17 -18 -23 10 -3 0 -5 -22 -6 -30 0 -36 2 -25 9 13 9 11 14
-13 35 -32 29 -39 29 -127 11 -36 -7 -98 -14 -139 -15 -41 0 -78 -5 -81 -11
-5 -8 -21 -8 -55 0 -60 13 -71 20 -54 31 8 5 -46 6 -126 3 -139 -6 -141 -6
-235 -49 -52 -24 -114 -47 -138 -51 -26 -3 -68 -23 -105 -47 -194 -130 -219
-390 -55 -563 92 -98 232 -136 358 -99 30 9 75 18 100 19 25 2 70 6 100 9 55
7 55 7 16 -6 -35 -11 -25 -12 115 -15 238 -6 477 0 590 14 39 4 59 3 64 -6 4
-7 2 -10 -6 -9 -16 4 -59 -22 -59 -33 0 -13 54 -9 131 11 41 10 103 22 139 26
36 4 72 13 80 21 45 39 150 55 119 18 -6 -8 -17 -14 -25 -14 -7 0 -16 -5 -20
-11 -4 -8 3 -9 25 -4 19 4 37 2 46 -5 10 -8 24 -8 54 1 23 7 41 15 41 19 0 4
26 11 58 15 175 21 316 128 362 274 47 149 7 307 -106 417 -69 68 -139 95
-259 102 -52 3 -98 10 -110 18 -25 18 -48 17 -118 -8z m-398 -83 c-2 -2 -16
-6 -32 -10 -21 -6 -27 -4 -27 8 0 10 11 17 28 19 24 3 41 -7 31 -17z m311
-684 c0 -4 -9 -20 -21 -35 -21 -27 -57 -34 -75 -16 -8 8 -19 8 -38 0 -32 -12
-66 -13 -66 -2 0 8 154 60 183 61 9 1 17 -3 17 -8z m-1240 -36 l35 -13 -36 -1
c-21 -1 -42 5 -49 14 -16 19 0 19 50 0z m140 5 c0 -5 -7 -10 -16 -10 -8 0 -12
5 -9 10 3 6 10 10 16 10 5 0 9 -4 9 -10z"/>
<path d="M10470 6634 l-45 -25 48 4 c54 5 61 -5 17 -23 -34 -14 -80 -6 -80 14
0 8 -9 16 -20 19 -11 3 -20 1 -20 -4 0 -5 6 -9 13 -9 8 0 8 -3 -2 -9 -20 -13
-44 -2 -32 13 8 9 -15 13 -96 14 l-107 2 -40 -43 c-50 -52 -156 -149 -137
-124 8 10 9 17 3 17 -6 0 -24 -18 -41 -39 -189 -239 -56 -587 245 -643 50 -9
74 -8 134 6 98 22 143 21 165 -4 28 -31 96 -27 162 10 59 34 78 37 99 15 9 -8
25 -15 37 -15 20 0 18 3 -11 26 -37 30 -30 44 22 44 28 0 29 -1 12 -19 -17
-19 -17 -20 17 -26 20 -4 44 -2 56 5 12 6 26 8 33 4 6 -4 71 -8 145 -10 74 -1
148 -6 165 -9 34 -8 150 14 142 27 -3 4 20 8 50 8 31 0 56 -4 56 -10 0 -5 17
-10 38 -9 32 1 34 2 12 8 -23 7 -22 8 14 15 44 8 174 -3 156 -14 -21 -13 11
-17 136 -16 87 1 126 5 138 15 11 10 13 17 6 26 -8 10 -1 13 31 13 66 1 184
66 236 130 56 69 88 170 80 252 -11 101 -42 168 -111 236 -83 82 -133 100
-278 97 -60 0 -106 2 -103 7 3 4 -5 10 -18 14 -35 9 -40 7 -27 -9 10 -12 10
-15 -1 -15 -8 0 -25 -3 -39 -7 -22 -6 -24 -5 -11 10 12 15 11 17 -8 17 -12 0
-52 -8 -88 -17 -59 -14 -78 -15 -152 -4 -265 39 -352 45 -465 31 -50 -7 -97
-16 -105 -20 -8 -4 -33 1 -59 12 -37 17 -46 18 -54 7 -7 -11 -11 -11 -15 -1
-6 15 -133 17 -133 2 0 -5 11 -10 24 -10 30 0 54 -26 38 -42 -7 -7 -30 -4 -81
11 -79 24 -99 41 -49 42 27 0 29 2 13 8 -50 20 -71 19 -115 -5z m390 -30 c0
-2 -9 -4 -20 -4 -11 0 -20 4 -20 9 0 5 9 7 20 4 11 -3 20 -7 20 -9z m396 1
c-22 -17 -36 -19 -36 -7 0 14 12 22 34 22 21 -1 21 -1 2 -15z m-81 -5 c3 -5
-3 -10 -15 -10 -12 0 -18 5 -15 10 3 6 10 10 15 10 5 0 12 -4 15 -10z m-760
-710 c3 -6 -1 -7 -9 -4 -18 7 -21 14 -7 14 6 0 13 -4 16 -10z m911 -26 c-9 -8
-20 -12 -26 -9 -15 9 -2 25 21 25 19 0 19 -1 5 -16z"/>
<path d="M9996 6504 c-23 -23 -20 -30 4 -9 11 10 20 20 20 22 0 7 -9 2 -24
-13z"/>
<path d="M3155 5450 c-51 -11 -116 -38 -130 -55 -11 -14 -87 -26 -79 -13 7 11
-8 10 -26 -2 -10 -6 -11 -10 -2 -10 21 0 13 -16 -15 -29 -21 -10 -28 -9 -34 1
-6 9 -24 2 -69 -30 -34 -23 -67 -42 -74 -42 -6 0 -16 -4 -22 -9 -5 -5 -36 -14
-69 -19 -126 -23 -185 -41 -185 -58 0 -16 -45 -47 -88 -62 -32 -11 -32 -11
-17 11 31 44 15 48 -54 13 -95 -47 -166 -89 -184 -107 -10 -11 -30 -18 -45
-18 l-27 1 30 8 c28 7 27 8 -12 9 -32 1 -43 -3 -43 -14 0 -11 -7 -14 -23 -10
-12 3 -40 -2 -62 -12 -37 -16 -38 -17 -15 -21 28 -4 41 -19 33 -38 -6 -15
-121 -29 -154 -19 l-22 7 24 14 24 13 -33 1 c-25 0 -41 -8 -62 -32 -35 -38
-33 -45 10 -23 44 23 49 12 12 -25 -31 -30 -69 -39 -89 -19 -14 14 -79 7 -76
-8 3 -13 -3 -15 -87 -33 -71 -16 -84 -28 -115 -109 -28 -72 -89 -190 -80 -153
13 47 -4 19 -19 -32 -22 -76 -20 -169 5 -246 18 -51 35 -76 88 -130 149 -151
356 -171 511 -50 45 36 94 49 157 43 l50 -5 64 66 c61 63 65 65 101 59 27 -4
38 -2 38 7 0 8 -9 11 -26 7 -35 -6 -42 18 -13 43 34 28 51 26 43 -5 -3 -14 -4
-25 -1 -25 16 0 77 32 77 40 0 6 17 10 39 10 22 0 44 6 51 15 7 8 28 17 49 21
20 4 50 15 67 25 18 11 51 22 75 25 52 7 115 37 144 68 25 27 108 61 130 53
17 -7 45 1 45 13 0 5 -10 6 -22 2 -13 -3 -19 -1 -15 5 6 9 116 51 177 68 19 5
21 4 10 -4 -13 -9 -13 -11 1 -11 9 0 19 3 23 7 4 4 34 13 66 20 82 16 212 103
155 103 -8 0 -15 5 -15 10 0 6 11 10 24 10 34 0 145 111 176 175 19 41 24 66
24 140 1 81 -2 97 -31 158 -55 116 -148 187 -271 208 -64 10 -61 10 -117 -1z
m-1515 -600 c0 -5 -12 -10 -27 -10 -22 0 -25 2 -13 10 20 13 40 13 40 0z
m1144 -345 c-6 -16 -34 -21 -34 -7 0 13 11 22 26 22 8 0 11 -6 8 -15z m-844
-305 c11 -7 7 -10 -17 -10 -18 0 -33 5 -33 10 0 13 30 13 50 0z"/>
<path d="M2382 5178 c-18 -18 -15 -41 4 -34 9 3 17 6 19 6 3 0 9 9 15 20 9 17
8 20 -8 20 -10 0 -23 -5 -30 -12z"/>
<path d="M9704 5051 c-183 -44 -316 -252 -284 -444 13 -74 55 -165 98 -210 33
-35 105 -81 153 -97 20 -7 42 -25 51 -41 17 -29 51 -42 137 -52 29 -4 40 -2
30 4 -24 15 9 11 39 -5 30 -16 98 -47 155 -70 20 -8 37 -19 37 -25 0 -5 19
-18 43 -29 31 -16 60 -20 115 -19 39 0 72 5 72 9 0 4 12 2 26 -4 20 -9 22 -13
10 -18 -14 -5 -14 -9 2 -40 16 -33 23 -37 107 -58 50 -12 95 -28 100 -36 6 -7
17 -13 25 -14 55 -5 118 -31 154 -64 23 -21 33 -35 24 -32 -10 3 -18 2 -18 -4
0 -12 54 -32 86 -32 13 0 26 -5 29 -11 4 -5 32 -22 63 -37 48 -22 78 -27 182
-34 69 -4 153 -10 187 -14 169 -16 323 96 369 271 59 220 -86 432 -315 462
-25 3 -51 10 -57 15 -7 5 -43 20 -80 33 -39 14 -54 23 -36 20 45 -7 31 11 -15
20 -21 4 -67 24 -103 46 -37 21 -70 39 -75 39 -5 0 -19 9 -31 21 -12 11 -54
33 -94 50 -80 32 -84 33 -75 20 8 -13 -85 38 -110 60 -11 10 -51 25 -88 34
-87 20 -122 36 -105 47 7 4 28 8 47 8 59 0 19 25 -71 45 -46 9 -110 27 -143
38 -39 13 -81 19 -122 18 -61 -2 -103 10 -103 29 0 6 14 10 31 10 17 0 28 4
24 10 -3 6 -15 10 -26 10 -10 0 -19 6 -19 14 0 18 -25 27 -93 31 -29 2 -74 11
-101 19 -51 17 -176 20 -232 7z m638 -171 c7 -11 20 -20 28 -20 8 0 33 -9 55
-20 l40 -19 -60 5 c-140 12 -197 41 -122 63 46 13 46 13 59 -9z m930 -472 c-9
-9 -15 -9 -24 0 -9 9 -7 12 12 12 19 0 21 -3 12 -12z m151 -70 c3 -12 1 -16
-6 -12 -22 12 -57 47 -57 56 0 16 58 -25 63 -44z m-1548 -88 c11 -13 14 -20 6
-20 -21 0 -52 21 -46 31 9 14 20 11 40 -11z m405 -150 c8 -5 11 -12 8 -15 -9
-9 -68 5 -68 16 0 12 41 11 60 -1z"/>
<path d="M1306 4614 c-4 -9 -4 -19 -1 -22 2 -3 7 3 11 12 4 9 4 19 1 22 -2 3
-7 -3 -11 -12z"/>
<path d="M3990 4115 c-62 -18 -127 -60 -184 -122 -22 -23 -43 -40 -49 -36 -21
13 -59 -24 -93 -90 -20 -38 -31 -66 -25 -63 19 12 12 -6 -11 -29 -13 -13 -28
-29 -35 -37 -6 -7 -37 -35 -67 -63 -143 -128 -146 -132 -146 -161 l1 -29 23
29 c14 17 26 24 30 17 10 -15 -16 -51 -36 -51 -20 0 -53 -44 -44 -58 3 -5 -4
-18 -16 -28 -19 -17 -21 -17 -15 -1 5 14 1 17 -27 17 -35 0 -59 -23 -110 -104
-10 -15 -40 -51 -67 -80 -27 -28 -49 -56 -49 -62 0 -15 -39 -48 -79 -69 -30
-15 -33 -15 -28 -1 10 26 -10 18 -30 -11 -10 -14 -49 -59 -87 -100 -63 -66
-73 -83 -103 -169 -18 -52 -44 -109 -57 -125 -31 -36 -46 -84 -53 -170 -15
-179 95 -325 282 -375 70 -19 132 -17 199 6 99 34 161 88 215 189 18 34 36 61
41 61 5 0 28 25 51 55 45 57 62 67 34 18 l-17 -28 21 25 c53 60 71 78 131 130
88 76 180 171 180 186 0 7 29 36 65 64 36 29 76 71 90 94 29 49 93 113 81 81
-4 -11 -10 -36 -13 -55 l-5 -35 22 25 c11 14 37 50 57 80 67 102 97 145 105
148 4 2 15 29 24 60 25 87 81 139 69 65 l-6 -38 16 28 c9 15 23 27 33 27 16 0
52 50 52 71 0 6 19 38 41 72 55 82 79 139 90 212 33 222 -141 429 -370 441
-49 3 -95 -1 -131 -11z m-276 -278 c-6 -18 -43 -39 -54 -32 -6 3 2 17 18 30
27 23 45 25 36 2z m438 -601 c6 -29 -5 -52 -41 -87 -14 -14 -36 -38 -49 -53
-13 -15 -26 -26 -28 -23 -11 11 89 187 105 187 5 0 11 -11 13 -24z m-842 -869
c8 2 2 -7 -13 -21 -29 -26 -57 -34 -57 -16 0 6 3 10 8 10 4 0 14 5 22 10 12 8
-25 50 -185 212 l-200 203 205 -201 c129 -128 211 -200 220 -197z m78 83 c-7
-11 -16 -20 -21 -20 -4 0 -3 9 3 20 6 11 15 20 20 20 6 0 5 -9 -2 -20z"/>
<path d="M8580 3721 c-149 -47 -253 -166 -281 -325 -21 -126 20 -246 122 -346
68 -68 89 -101 89 -140 0 -46 26 -78 90 -110 56 -28 82 -50 79 -66 -4 -25 2
-54 12 -54 7 0 9 11 6 30 -8 39 9 47 39 19 29 -27 30 -39 4 -39 -11 0 -20 -3
-20 -6 0 -15 36 -64 46 -64 7 0 18 -16 24 -35 6 -19 20 -40 30 -45 10 -5 23
-25 30 -44 6 -18 20 -42 31 -52 12 -10 34 -46 51 -79 28 -58 64 -105 79 -105
3 0 9 10 13 22 5 22 6 22 20 3 20 -26 20 -36 1 -29 -24 10 -18 -4 20 -43 19
-20 40 -53 45 -74 6 -21 15 -41 21 -45 8 -4 9 1 4 17 -7 22 -5 22 19 -6 44
-49 86 -128 80 -150 -4 -16 -3 -17 5 -5 9 13 11 13 11 -1 0 -9 11 -41 24 -70
37 -85 161 -187 141 -116 -5 16 -2 14 13 -9 26 -40 88 -89 148 -115 75 -32
158 -36 243 -10 61 18 79 30 133 84 77 77 80 81 100 137 47 131 19 269 -75
363 -28 28 -41 50 -44 79 -4 27 -9 36 -16 29 -8 -8 -18 -4 -34 11 -27 25 -30
43 -7 34 15 -6 15 -4 3 11 -8 10 -39 43 -70 73 -39 39 -68 80 -93 133 -20 43
-36 80 -36 82 0 16 -47 75 -60 75 -20 1 -52 28 -73 62 -22 36 -22 39 8 28 54
-21 15 41 -97 153 -37 38 -68 74 -68 80 0 8 -3 7 -9 -1 -6 -10 -10 -8 -14 10
-4 12 -2 25 3 26 6 2 10 12 10 23 0 12 -5 16 -15 13 -11 -5 -15 1 -15 18 0 14
-15 42 -35 64 -33 36 -34 37 -25 11 11 -32 6 -47 -15 -47 -17 0 -37 38 -55
103 -14 53 -8 71 15 41 13 -17 14 -16 5 15 -10 36 -15 41 -65 68 l-30 16 27
-35 c32 -42 27 -53 -13 -32 -28 14 -44 46 -38 75 2 8 0 31 -5 52 -5 28 -11 37
-22 33 -10 -4 -23 14 -45 60 -36 75 -54 90 -129 99 -30 4 -86 14 -125 22 -54
12 -65 18 -50 24 26 10 -132 10 -165 0z m530 -245 c0 -24 -17 -28 -23 -6 -3
13 0 20 9 20 8 0 14 -6 14 -14z m-560 -458 c0 -10 -4 -18 -10 -18 -5 0 -10 15
-10 33 0 24 3 28 10 17 5 -8 10 -23 10 -32z"/>
<path d="M8788 3713 c7 -3 16 -2 19 1 4 3 -2 6 -13 5 -11 0 -14 -3 -6 -6z"/>
<path d="M5357 3620 c-64 -20 -153 -82 -190 -132 -39 -54 -68 -136 -77 -217
-10 -95 -15 -108 -58 -148 -34 -32 -34 -34 -28 -95 3 -35 8 -80 12 -101 5 -33
4 -39 -15 -44 -19 -5 -39 -39 -29 -49 3 -2 15 5 28 16 13 11 25 20 27 20 1 0
3 -19 3 -42 0 -42 0 -42 -16 -19 l-17 24 -13 -24 c-7 -13 -13 -39 -14 -57 0
-19 -9 -45 -20 -59 -11 -15 -18 -34 -15 -43 3 -10 -6 -39 -20 -65 -14 -27 -25
-57 -25 -67 0 -11 -14 -51 -30 -88 -24 -54 -29 -79 -26 -117 5 -54 -18 -139
-40 -147 -8 -3 -14 -19 -13 -38 l1 -33 13 30 c21 45 18 17 -7 -60 -11 -38 -32
-79 -45 -91 -12 -12 -23 -26 -23 -31 0 -6 -11 -35 -25 -66 -33 -72 -41 -194
-12 -189 15 3 17 0 8 -17 -22 -41 -3 -180 35 -254 24 -45 84 -107 128 -130 76
-40 109 -47 201 -46 77 1 99 6 149 29 101 49 163 123 192 235 16 60 17 68 4
60 -5 -3 -2 7 7 24 10 16 21 27 25 25 8 -5 28 28 28 46 0 6 -4 8 -10 5 -6 -4
-10 7 -10 26 0 27 2 30 15 19 8 -7 15 -11 15 -9 12 158 19 186 70 287 52 101
60 134 45 182 -8 22 -7 24 8 12 9 -8 13 -21 11 -30 -5 -14 -2 -13 10 2 9 11
16 31 16 44 0 13 6 29 13 37 16 15 46 173 51 258 1 32 8 63 14 69 9 9 12 9 12
1 0 -7 -4 -15 -10 -18 -5 -3 -10 -12 -10 -18 1 -7 12 2 25 18 15 18 22 37 19
48 -3 11 -1 16 7 15 8 -2 21 27 35 82 12 47 21 86 19 88 -1 2 -9 -14 -18 -36
-19 -47 -43 -70 -59 -54 -8 8 -2 26 23 67 19 31 42 64 52 73 18 16 18 15 12
-13 l-6 -30 20 24 c12 13 20 35 20 50 -2 31 -16 92 -18 73 0 -7 -6 -10 -13 -6
-7 4 -8 3 -4 -5 4 -6 4 -26 0 -44 l-7 -32 -10 28 c-11 35 8 87 32 87 20 0 66
76 52 85 -6 3 2 32 20 68 16 34 29 70 29 80 0 9 -27 69 -61 132 -33 63 -58
115 -55 115 3 0 15 -18 26 -40 26 -51 33 -52 13 -1 -38 98 -146 198 -243 225
-74 21 -181 19 -253 -4z m490 -622 c-3 -8 -6 -5 -6 6 -1 11 2 17 5 13 3 -3 4
-12 1 -19z m-971 -684 c-3 -9 -6 -21 -7 -27 0 -7 -4 -3 -8 8 -9 22 -5 35 11
35 5 0 7 -7 4 -16z m744 -68 c0 -8 -7 -16 -15 -20 -17 -6 -18 -4 -9 18 8 20
24 21 24 2z"/>
<path d="M6945 3453 c-222 -51 -357 -237 -324 -445 6 -34 12 -65 15 -69 3 -5
-2 -19 -11 -33 -19 -29 -13 -60 26 -135 29 -53 35 -51 30 12 -1 15 2 27 8 27
18 0 21 -17 11 -70 -6 -30 -6 -58 -1 -64 11 -14 24 -103 26 -187 3 -81 20
-136 47 -150 11 -6 24 -24 30 -40 5 -16 14 -27 18 -24 10 6 25 -34 16 -42 -3
-4 -6 0 -6 8 0 18 -49 -41 -50 -59 0 -8 11 -42 25 -77 14 -35 27 -79 29 -98 2
-19 5 -38 9 -43 3 -5 8 -26 12 -47 4 -20 11 -37 16 -37 11 0 10 -88 -1 -115
-7 -17 -9 -17 -9 -2 -1 9 -5 17 -11 17 -14 0 -13 -10 6 -61 9 -24 22 -83 30
-131 12 -79 18 -94 62 -155 58 -80 82 -124 82 -152 0 -11 27 -49 60 -84 122
-131 283 -161 440 -82 70 36 123 88 161 157 33 60 34 67 34 168 0 96 -3 110
-29 165 -17 33 -29 68 -29 78 1 9 -7 43 -18 74 -22 65 -25 92 -4 48 15 -34 20
-10 6 29 -6 13 -15 82 -21 153 -11 136 -26 220 -42 240 -6 7 -14 54 -17 105
-4 51 -14 107 -23 123 -8 17 -18 48 -22 70 l-7 40 26 -27 c14 -16 30 -28 36
-28 14 0 2 53 -27 117 -26 57 -64 170 -64 188 0 7 -13 26 -28 41 -33 34 -57
88 -47 104 5 8 15 3 31 -16 24 -30 32 -18 13 18 -8 16 -8 22 2 28 10 7 10 14
-1 40 -7 17 -19 37 -25 44 -7 7 -25 45 -39 85 -42 116 -114 207 -196 251 -79
41 -186 59 -255 43z m528 -673 c12 -14 17 -31 13 -45 -3 -13 1 -39 9 -59 26
-62 16 -73 -16 -16 -39 69 -70 146 -62 154 8 8 35 -8 56 -34z m-669 -396 c9
-23 7 -44 -3 -44 -5 0 -14 14 -20 30 -8 24 -7 30 3 30 8 0 17 -7 20 -16z m836
-678 c0 -5 -7 -3 -15 4 -8 7 -12 17 -9 22 7 10 24 -9 24 -26z m23 -153 c-7
-17 -23 -17 -23 1 0 7 3 29 7 47 l7 34 7 -34 c4 -19 5 -40 2 -48z"/>
<path d="M9560 2803 c0 -16 16 -30 38 -35 25 -7 26 -5 12 23 -10 18 -50 28
-50 12z"/>
</g>
</svg>
